<?xml version="1.0" encoding="UTF-8"?>
<!DOCTYPE svg PUBLIC "-//W3C//DTD SVG 1.1//EN" "http://www.w3.org/Graphics/SVG/1.1/DTD/svg11.dtd">
<svg xmlns="http://www.w3.org/2000/svg" version="1.1" width="512px" height="512px" style="shape-rendering:geometricPrecision; text-rendering:geometricPrecision; image-rendering:optimizeQuality; fill-rule:evenodd; clip-rule:evenodd" xmlns:xlink="http://www.w3.org/1999/xlink">
<g><path style="opacity:0.965" fill="#000000" d="M 511.5,224.5 C 511.5,233.167 511.5,241.833 511.5,250.5C 508.093,265.984 501.426,279.984 491.5,292.5C 503.966,309.635 506.799,328.301 500,348.5C 489.994,373.178 473.494,392.345 450.5,406C 435.858,414.325 420.358,420.492 404,424.5C 404.895,431.654 406.062,438.82 407.5,446C 407.304,454.195 403.304,459.528 395.5,462C 388.333,462.167 381.167,462.333 374,462.5C 365.76,462.62 357.594,462.12 349.5,461C 346.37,458.872 343.537,456.372 341,453.5C 326.87,437.035 312.37,420.869 297.5,405C 285.993,404.082 274.66,402.082 263.5,399C 254.626,395.626 246.959,390.459 240.5,383.5C 218.686,389.246 197.019,388.746 175.5,382C 157.19,374.432 143.356,361.932 134,344.5C 115.13,353.94 95.2962,356.773 74.5,353C 59.6733,349.334 47.5066,341.501 38,329.5C 30,318.167 22,306.833 14,295.5C 7.06102,283.499 2.22768,270.833 -0.5,257.5C -0.5,248.167 -0.5,238.833 -0.5,229.5C 5.38289,202.068 17.8829,178.068 37,157.5C 59.4475,111.436 96.2808,84.9358 147.5,78C 268.595,22.9044 373.095,45.0711 461,144.5C 470.292,156.127 479.959,167.461 490,178.5C 500.711,192.251 507.878,207.584 511.5,224.5 Z M 257.5,81.5 C 272.353,80.895 287.019,82.0616 301.5,85C 277.739,112.546 270.239,144.046 279,179.5C 287.711,188.395 296.711,188.729 306,180.5C 308.072,177.117 309.239,173.45 309.5,169.5C 304.113,137.599 314.78,112.933 341.5,95.5C 359.149,103.34 375.649,113.007 391,124.5C 391.065,129.72 389.398,134.387 386,138.5C 382.054,142.445 377.554,145.611 372.5,148C 365.019,156.064 364.685,164.397 371.5,173C 379.765,178.932 388.098,178.932 396.5,173C 406.097,166.737 413.597,158.57 419,148.5C 437.855,168.574 455.522,189.574 472,211.5C 481.936,231.858 480.27,251.191 467,269.5C 463.333,274.5 459,278.833 454,282.5C 449.759,289.268 449.425,296.268 453,303.5C 472.106,315.269 475.44,330.602 463,349.5C 448.5,368.683 429.666,381.85 406.5,389C 396.659,391.768 386.659,393.768 376.5,395C 369.775,397.937 366.108,403.103 365.5,410.5C 366.996,416.814 368.329,423.148 369.5,429.5C 367.801,429.66 366.134,429.494 364.5,429C 348.203,410.367 331.536,392.034 314.5,374C 313.167,373.333 311.833,372.667 310.5,372C 302.228,370.796 293.894,370.129 285.5,370C 274.909,369.972 267.742,365.139 264,355.5C 261.204,351.364 257.371,348.864 252.5,348C 238.156,350.799 223.656,352.966 209,354.5C 189.175,355.012 174.342,346.845 164.5,330C 171.267,324.567 177.433,318.4 183,311.5C 194.925,294.439 196.592,276.439 188,257.5C 179.315,249.51 170.648,249.51 162,257.5C 157.864,264.539 157.364,271.873 160.5,279.5C 158.855,288.983 153.855,296.149 145.5,301C 128.952,312.193 110.785,319.026 91,321.5C 87.4103,321.528 83.9103,321.028 80.5,320C 75.7139,316.882 71.2139,313.382 67,309.5C 58.6176,299.452 50.6176,289.119 43,278.5C 31.4616,259.826 29.4616,240.159 37,219.5C 49.7742,247.41 71.6075,262.077 102.5,263.5C 117.683,259.802 122.183,250.802 116,236.5C 114.062,233.894 111.562,232.061 108.5,231C 76.7159,228.543 62.2159,211.376 65,179.5C 78.3938,143.024 104.227,120.858 142.5,113C 151.704,110.192 160.371,111.192 168.5,116C 172.5,121 176.5,126 180.5,131C 189.6,136.367 197.767,135.2 205,127.5C 208.58,120.305 208.247,113.305 204,106.5C 200.833,102.667 197.667,98.8333 194.5,95C 215.103,87.9813 236.103,83.4813 257.5,81.5 Z"/></g>
<g><path style="opacity:0.959" fill="#000000" d="M 218.5,139.5 C 229.809,137.998 236.976,142.665 240,153.5C 242.769,166.455 240.269,178.288 232.5,189C 236.887,194.732 242.387,198.898 249,201.5C 258.676,196.504 267.01,198.171 274,206.5C 278.669,223.209 272.169,232.375 254.5,234C 242.401,235.079 231.401,232.079 221.5,225C 215.968,220.465 210.801,215.631 206,210.5C 190.013,217.679 173.513,219.512 156.5,216C 145.662,212.826 137.495,206.326 132,196.5C 129.833,180 137,172.833 153.5,175C 157.41,176.907 160.744,179.573 163.5,183C 177.09,186.186 189.423,183.52 200.5,175C 207.101,170.13 209.101,163.796 206.5,156C 207.003,147.785 211.003,142.285 218.5,139.5 Z"/></g>
<g><path style="opacity:0.961" fill="#000000" d="M 324.5,189.5 C 331.147,188.592 337.147,190.092 342.5,194C 359.642,206.954 367.975,224.288 367.5,246C 366.787,257.441 364.954,268.607 362,279.5C 374,287.5 384,297.5 392,309.5C 400.622,324.415 401.955,339.748 396,355.5C 389.394,361.977 381.894,363.144 373.5,359C 371.291,357.127 369.458,354.96 368,352.5C 369.335,334.338 362.502,320.171 347.5,310C 331.322,298.122 313.322,293.456 293.5,296C 290.554,296.806 287.888,298.139 285.5,300C 281.833,304.333 278.167,308.667 274.5,313C 264.775,317.719 256.608,315.885 250,307.5C 247.545,300.499 248.212,293.832 252,287.5C 267.359,267.144 287.859,258.644 313.5,262C 319.169,262.533 324.669,263.7 330,265.5C 333.303,256.114 334.303,246.448 333,236.5C 330.714,227.59 325.38,221.257 317,217.5C 309.646,205.409 312.146,196.076 324.5,189.5 Z"/></g>
<g><path style="opacity:0.948" fill="#000000" d="M 429.5,218.5 C 442.481,216.662 449.814,222.162 451.5,235C 451.133,243.069 447.133,248.403 439.5,251C 428.253,253.585 416.92,255.252 405.5,256C 393.008,250.564 389.841,241.731 396,229.5C 398.441,227.031 401.274,225.198 404.5,224C 413.03,222.463 421.363,220.63 429.5,218.5 Z"/></g>
</svg>
