<?xml version="1.0" standalone="no"?>
<!DOCTYPE svg PUBLIC "-//W3C//DTD SVG 20010904//EN"
 "http://www.w3.org/TR/2001/REC-SVG-20010904/DTD/svg10.dtd">
<svg version="1.0" xmlns="http://www.w3.org/2000/svg"
 width="628.000000pt" height="502.000000pt" viewBox="0 0 628.000000 502.000000"
 preserveAspectRatio="xMidYMid meet">

<g transform="translate(0.000000,502.000000) scale(0.100000,-0.100000)"
fill="#000000" stroke="none">
<path d="M3975 4153 c-270 -22 -439 -73 -507 -152 -51 -59 -63 -113 -62 -266
1 -147 14 -217 54 -292 26 -49 27 -53 12 -83 -9 -18 -37 -46 -64 -64 -26 -17
-48 -35 -48 -39 0 -4 17 -15 37 -24 46 -19 113 -13 178 16 l45 20 53 -23 c150
-66 357 -93 592 -76 297 22 398 54 499 159 64 68 100 138 121 238 20 92 19
276 0 335 -43 125 -232 221 -490 248 -84 9 -329 11 -420 3z m-53 -440 c37 -33
15 -93 -36 -93 -40 0 -59 59 -29 92 20 22 41 23 65 1z m244 9 c23 -15 35 -51
24 -72 -25 -47 -100 -28 -100 26 0 35 49 65 76 46z m254 -12 c11 -11 20 -26
20 -33 0 -23 -31 -57 -52 -57 -27 0 -58 28 -58 52 0 22 34 58 55 58 8 0 24 -9
35 -20z"/>
<path d="M2800 3947 c-8 -8 -51 -22 -94 -31 -88 -17 -150 -52 -169 -94 -6 -15
-24 -42 -39 -59 -46 -55 -49 -137 -11 -322 l18 -86 6 130 c4 106 9 138 27 172
12 23 26 44 31 47 5 4 26 -4 46 -16 45 -26 132 -29 185 -6 21 9 43 12 55 7 11
-4 55 -8 97 -8 77 -1 78 -1 94 -33 23 -45 32 -167 13 -179 -10 -6 -10 -9 -1
-9 7 0 12 -16 13 -42 l1 -43 15 45 c29 91 36 232 16 357 -11 70 -31 99 -77
108 -17 4 -51 21 -75 37 -51 37 -127 49 -151 25z"/>
<path d="M2615 3536 c-11 -8 -17 -17 -13 -21 9 -9 89 8 91 20 3 16 -56 17 -78
1z"/>
<path d="M2897 3543 c-13 -13 -7 -21 21 -25 15 -3 35 -9 45 -13 24 -10 23 21
-2 35 -22 11 -54 13 -64 3z"/>
<path d="M2639 3463 c-13 -17 -13 -17 6 -3 11 8 22 16 24 17 2 2 0 3 -6 3 -6
0 -17 -8 -24 -17z"/>
<path d="M2701 3477 c2 -1 13 -9 24 -17 19 -14 19 -14 6 3 -7 9 -18 17 -24 17
-6 0 -8 -1 -6 -3z"/>
<path d="M2852 3455 c-11 -13 -22 -22 -24 -19 -3 2 -3 -6 -1 -20 3 -14 14 -33
26 -43 l20 -18 -18 28 c-15 23 -16 32 -6 53 6 13 21 29 33 34 17 6 18 9 6 9
-9 1 -25 -10 -36 -24z"/>
<path d="M2910 3476 c0 -2 7 -7 16 -10 8 -3 12 -2 9 4 -6 10 -25 14 -25 6z"/>
<path d="M2570 3450 c8 -5 20 -10 25 -10 6 0 3 5 -5 10 -8 5 -19 10 -25 10 -5
0 -3 -5 5 -10z"/>
<path d="M3000 3450 c-8 -5 -10 -10 -5 -10 6 0 17 5 25 10 8 5 11 10 5 10 -5
0 -17 -5 -25 -10z"/>
<path d="M2758 3443 c-10 -2 -18 -14 -18 -25 0 -12 -8 -31 -17 -42 -13 -15
-10 -14 10 4 15 13 25 30 23 37 -3 8 7 16 27 22 32 9 8 13 -25 4z"/>
<path d="M2957 3439 c7 -7 15 -10 18 -7 3 3 -2 9 -12 12 -14 6 -15 5 -6 -5z"/>
<path d="M2617 3416 c3 -14 15 -33 27 -43 21 -18 21 -18 4 3 -10 11 -18 30
-18 42 0 12 -4 22 -9 22 -4 0 -6 -11 -4 -24z"/>
<path d="M2676 3433 c-12 -12 -6 -33 9 -33 8 0 15 6 15 14 0 17 -14 28 -24 19z"/>
<path d="M2890 3420 c0 -19 11 -26 23 -14 8 8 -3 34 -14 34 -5 0 -9 -9 -9 -20z"/>
<path d="M2939 3373 c-13 -16 -12 -17 4 -4 16 13 21 21 13 21 -2 0 -10 -8 -17
-17z"/>
<path d="M2888 3353 c6 -2 18 -2 25 0 6 3 1 5 -13 5 -14 0 -19 -2 -12 -5z"/>
<path d="M3129 2940 c84 -110 135 -246 148 -394 5 -69 8 -76 27 -75 12 0 15 3
9 6 -7 2 -13 19 -13 38 0 65 -31 209 -60 279 -32 76 -90 159 -129 185 -18 12
-14 2 18 -39z"/>
<path d="M2450 2705 c0 -92 -1 -96 -25 -107 -55 -25 -89 -137 -101 -333 -7
-115 -1 -127 74 -139 40 -6 42 -5 42 19 0 27 -9 32 -27 14 -8 -8 -19 -7 -40 3
-28 14 -28 14 -27 105 3 163 36 287 83 313 56 29 108 -9 136 -100 9 -32 19
-108 22 -182 l6 -127 -24 -5 c-13 -3 -33 -5 -44 -3 -14 1 -20 -4 -20 -18 0
-16 6 -20 29 -18 15 1 39 10 53 19 l26 16 -6 127 c-9 187 -41 281 -105 311
l-32 15 0 93 c0 54 -4 92 -10 92 -6 0 -10 -38 -10 -95z m-23 -567 c-3 -8 -6
-5 -6 6 -1 11 2 17 5 13 3 -3 4 -12 1 -19z m103 7 c0 -8 -2 -15 -4 -15 -2 0
-6 7 -10 15 -3 8 -1 15 4 15 6 0 10 -7 10 -15z"/>
<path d="M3269 2357 c17 -22 35 -22 52 0 13 15 12 15 -6 6 -14 -8 -25 -8 -40
-1 -18 10 -19 10 -6 -5z"/>
<path d="M3283 2303 c9 -2 23 -2 30 0 6 3 -1 5 -18 5 -16 0 -22 -2 -12 -5z"/>
<path d="M2757 2175 c-4 -43 -7 -165 -7 -272 0 -188 1 -193 19 -183 33 17 87
11 145 -15 35 -16 73 -25 105 -25 71 0 82 6 70 38 -7 19 -6 27 3 33 7 5 95 41
195 80 l182 72 3 156 c2 86 3 157 2 158 0 3 -153 10 -560 29 l-151 7 -6 -78z"/>
<path d="M1186 1964 c-61 -32 -137 -107 -167 -165 -23 -45 -51 -140 -44 -147
9 -10 78 44 129 100 51 56 158 239 139 238 -4 -1 -30 -12 -57 -26z"/>
<path d="M4937 1590 c13 -5 32 -24 43 -42 19 -32 20 -50 20 -431 0 -432 0
-432 -56 -476 l-27 -21 68 0 c73 0 107 14 140 58 19 26 20 43 20 427 0 398 0
400 -22 431 -29 40 -88 64 -156 63 -41 0 -47 -2 -30 -9z"/>
<path d="M1534 1465 c-83 -107 -159 -246 -187 -343 l-16 -52 27 6 c47 11 124
57 147 89 56 75 83 186 68 285 l-8 54 -31 -39z"/>
<path d="M3045 1428 c-73 -29 -176 -58 -208 -58 -15 0 -43 7 -62 14 l-35 15 0
-105 0 -104 58 0 c40 0 623 27 660 30 1 0 2 52 2 116 0 63 -3 113 -8 110 -10
-6 -225 -43 -284 -49 -47 -4 -48 -4 -48 24 0 34 -7 34 -75 7z"/>
<path d="M774 1409 c-23 -11 -49 -28 -59 -39 -16 -18 -15 -19 37 -35 105 -31
264 -43 343 -26 l30 6 -60 41 c-114 77 -209 94 -291 53z"/>
<path d="M1323 875 c-29 -8 -74 -25 -99 -38 l-46 -24 53 -23 c43 -19 72 -24
140 -25 79 0 92 3 154 35 38 19 70 40 72 46 10 32 -189 53 -274 29z"/>
</g>
</svg>
