<svg id="Group_317" data-name="Group 317" xmlns="http://www.w3.org/2000/svg" width="25.759" height="25.759" viewBox="0 0 25.759 25.759">
  <g id="Path_2428" data-name="Path 2428" transform="translate(0)" fill="#f4f4f4">
    <path d="M 12.87930488586426 25.25861549377441 C 9.572674751281738 25.25861549377441 6.463964939117432 23.97094535827637 4.125814914703369 21.6327953338623 C 1.787674903869629 19.29465484619141 0.5000048875808716 16.18593406677246 0.5000048875808716 12.87930488586426 C 0.5000048875808716 9.572674751281738 1.787674903869629 6.463954925537109 4.125814914703369 4.125814914703369 C 6.463954925537109 1.787674903869629 9.572674751281738 0.5000048875808716 12.87930488586426 0.5000048875808716 C 16.18593406677246 0.5000048875808716 19.29465484619141 1.787674903869629 21.6327953338623 4.125814914703369 C 23.97094535827637 6.463964939117432 25.25861549377441 9.572674751281738 25.25861549377441 12.87930488586426 C 25.25861549377441 16.18593406677246 23.97094535827637 19.29465484619141 21.6327953338623 21.6327953338623 C 19.29465484619141 23.97094535827637 16.18593406677246 25.25861549377441 12.87930488586426 25.25861549377441 Z" stroke="none"/>
    <path d="M 12.87930488586426 0.9999942779541016 C 9.70622444152832 0.9999942779541016 6.723064422607422 2.235654830932617 4.479364395141602 4.479364395141602 C 2.235654830932617 6.723064422607422 0.9999942779541016 9.70622444152832 0.9999942779541016 12.87930488586426 C 0.9999942779541016 16.0523853302002 2.235654830932617 19.0355339050293 4.479364395141602 21.27923583984375 C 6.723064422607422 23.52294540405273 9.70622444152832 24.75860404968262 12.87930488586426 24.75860404968262 C 16.0523853302002 24.75860404968262 19.0355339050293 23.52294540405273 21.27923583984375 21.27923583984375 C 23.52294540405273 19.0355339050293 24.75860404968262 16.0523853302002 24.75860404968262 12.87930488586426 C 24.75860404968262 9.70622444152832 23.52294540405273 6.723064422607422 21.27923583984375 4.479364395141602 C 19.0355339050293 2.235654830932617 16.0523853302002 0.9999942779541016 12.87930488586426 0.9999942779541016 M 12.87930488586426 -5.7220458984375e-06 C 19.99234390258789 -5.7220458984375e-06 25.75860404968262 5.766254425048828 25.75860404968262 12.87930488586426 C 25.75860404968262 19.99234390258789 19.99234390258789 25.75860404968262 12.87930488586426 25.75860404968262 C 5.766254425048828 25.75860404968262 -5.7220458984375e-06 19.99234390258789 -5.7220458984375e-06 12.87930488586426 C -5.7220458984375e-06 5.766254425048828 5.766254425048828 -5.7220458984375e-06 12.87930488586426 -5.7220458984375e-06 Z" stroke="none" fill="#d7e9f5"/>
  </g>
  <g id="Group_188" data-name="Group 188" transform="translate(5.152 5.152)">
    <g id="ic_add_a_photo_24px">
      <path id="Path_2372" data-name="Path 2372" d="M1.848,3.024V1H3.08V3.024H4.928V4.373H3.08V6.4H1.848V4.373H0V3.024ZM3.7,7.072V5.048H5.544V3.024H9.855l1.127,1.349h1.953a1.3,1.3,0,0,1,1.232,1.349v8.1a1.3,1.3,0,0,1-1.232,1.349H3.08a1.3,1.3,0,0,1-1.232-1.349V7.072Zm4.312,6.072a3.238,3.238,0,0,0,3.08-3.373A3.238,3.238,0,0,0,8.008,6.4,3.238,3.238,0,0,0,4.928,9.77,3.238,3.238,0,0,0,8.008,13.143ZM6.036,9.77a2.069,2.069,0,0,0,1.971,2.159A2.069,2.069,0,0,0,9.979,9.77,2.069,2.069,0,0,0,8.008,7.611,2.069,2.069,0,0,0,6.036,9.77Z" transform="translate(0 -1)" fill="#122f53"/>
    </g>
  </g>
</svg>
