<svg xmlns="http://www.w3.org/2000/svg" width="253.966" height="259.367" viewBox="0 0 253.966 259.367">
  <g id="illustraion" transform="translate(-962.156 -953.116)">
    <g id="Shadow" transform="translate(989.514 1184.032)">
      <g id="Group_9" data-name="Group 9">
        <ellipse id="Ellipse_12" data-name="Ellipse 12" cx="98.554" cy="14.225" rx="98.554" ry="14.225" fill="#e6f7fd"/>
        <ellipse id="Ellipse_13" data-name="Ellipse 13" cx="98.554" cy="14.225" rx="98.554" ry="14.225" fill="#e6f7fd" opacity="0.5"/>
      </g>
    </g>
    <g id="Background_Simple" data-name="Background Simple" transform="translate(968.017 953.116)">
      <g id="Group_8" data-name="Group 8">
        <path id="Path_27" data-name="Path 27" d="M274.79,188.365C249.219,124.3,161.282,69.989,108.27,78.346,85.213,81.98,53.387,105.5,38.419,151.46,28.577,181.676-5.238,294.207,147.561,287.94S274.79,188.365,274.79,188.365Z" transform="translate(-28.293 -77.493)" fill="#a8eafc"/>
        <path id="Path_28" data-name="Path 28" d="M147.559,287.937C-5.24,294.208,28.577,181.675,38.416,151.46,53.388,105.5,85.21,81.977,108.272,78.344c18.88-2.976,42.186,2,65.534,12.529a212.168,212.168,0,0,1,23.913,12.737c33.449,20.6,63.737,51.353,77.07,84.753C274.789,188.363,300.358,281.673,147.559,287.937Z" transform="translate(-28.292 -77.492)" fill="#a8eafc" opacity="0.7"/>
      </g>
    </g>
    <path id="Path_268" data-name="Path 268" d="M1029.235,1217.63c-7.092-15.677-13.565-27.786-13.629-27.906a.257.257,0,0,1,.069-.327.2.2,0,0,1,.287.079c.064.12,6.546,12.244,13.644,27.935,5.589,12.354,12.544,29.137,16.313,43.592l5.76-42.78s-15.228-22.489-17.791-31.27-25.7-8.566-25.7-8.566c3.279,9.793-4.649,29.7-4.649,29.7l2.618,9.343H1000.7c-3.271,11.057,1.87,26.4,1.87,26.4l5.615,3.787-4.659,1.608c2.906,21.217,40.725,24.166,40.725,24.166l1.519-11.279C1042.076,1247.483,1034.941,1230.245,1029.235,1217.63Zm1.68,13.34a.2.2,0,0,1-.171.1.194.194,0,0,1-.12-.043c-5.667-4.517-12.346-5.814-16.951-6.108a36.107,36.107,0,0,0-8.722.451.212.212,0,0,1-.243-.19.238.238,0,0,1,.168-.277,36.435,36.435,0,0,1,8.821-.458c4.659.3,11.419,1.612,17.167,6.192A.259.259,0,0,1,1030.915,1230.97Z" transform="translate(-13.065 -78.575)" fill="#fff" stroke="#707070" stroke-width="1"/>
    <g id="Group_119" data-name="Group 119" transform="translate(1140.756 1124.562)">
      <path id="Path_269" data-name="Path 269" d="M1293.975,1246.384q-.671.073-1.364.146c-14.639,1.542-20.027,4.267-22,5.928l-25.176,32.931a.2.2,0,0,1-.158.081.2.2,0,0,1-.137-.058.263.263,0,0,1-.02-.336l23.978-31.363a3.543,3.543,0,0,1,1.255-1.642l3.484-4.558c.568-.744.936-8.7-.277-15.005a13.78,13.78,0,0,1-.219-2.93c-.723.488-1.47.964-2.247,1.42-9.128,5.351-11.758-3.889-15.971-2.494s-12.495,20.024-12.495,20.024-15.317,35.976,2.152,42.129c0,0,36.987,5.43,41.892-10.232,2.419-7.721-5.186-12.483.622-21.582A79.37,79.37,0,0,0,1293.975,1246.384Z" transform="translate(-1236.422 -1220.568)" fill="#fff"/>
      <path id="Path_270" data-name="Path 270" d="M1311.505,1221.056l-18.519,24.223h0l-2.582,3.377c2.774-1.7,8.632-3.845,21-5.147q.824-.087,1.6-.173C1316,1235.741,1317.145,1227.3,1311.505,1221.056Z" transform="translate(-1255.251 -1218.021)" fill="#fff"/>
      <path id="Path_271" data-name="Path 271" d="M1293.973,1228.233a50.565,50.565,0,0,1,.542,14.229l17.858-23.358a17.689,17.689,0,0,0-1.533-1.427c-4.86-4.02-9.548,2.239-17.06,7.433A13.443,13.443,0,0,0,1293.973,1228.233Z" transform="translate(-1256.422 -1216.395)" fill="#fff"/>
    </g>
    <g id="Group_120" data-name="Group 120" transform="translate(1150.903 1024.445)">
      <path id="Path_272" data-name="Path 272" d="M1263.739,1139.833a10.114,10.114,0,0,1-6.271-2.069c-6.182-4.682-7.125-15.7-2.8-32.762,3.377-13.319,9.186-27.437,13.464-36.936a9.059,9.059,0,0,1,5.509-5.123,6.5,6.5,0,0,1,5.906,1.058l3.391,2.568-1.465,2.508-3.391-2.568a4.147,4.147,0,0,0-3.774-.652,6.314,6.314,0,0,0-3.823,3.583c-4.226,9.38-9.959,23.308-13.276,36.4-1.851,7.3-2.71,13.459-2.552,18.3.177,5.365,1.615,9.107,4.275,11.122s6.247,2.077,10.659.188c3.979-1.7,8.632-4.986,13.831-9.755,9.315-8.546,18.379-19.952,24.341-28.016a7.579,7.579,0,0,0,1.423-5.4,5.4,5.4,0,0,0-1.987-3.711l-2.966-2.246,1.465-2.508,2.967,2.247a8.445,8.445,0,0,1,3.141,5.793,10.894,10.894,0,0,1-2.019,7.766c-6.038,8.166-15.225,19.726-24.706,28.423C1276.52,1135.89,1269.375,1139.833,1263.739,1139.833Z" transform="translate(-1252.002 -1062.652)" fill="#23408e"/>
      <path id="Path_273" data-name="Path 273" d="M1325.807,1096.731l.771.583a1.555,1.555,0,0,0,2.316-.531l3.211-5.5a2.077,2.077,0,0,0-.466-2.638l-.77-.583a1.555,1.555,0,0,0-2.317.531l-3.211,5.5A2.077,2.077,0,0,0,1325.807,1096.731Z" transform="translate(-1277.486 -1071.406)" fill="#0e2549"/>
      <path id="Path_274" data-name="Path 274" d="M1295.959,1074.127l.77.584a1.555,1.555,0,0,0,2.317-.531l3.21-5.5a2.076,2.076,0,0,0-.466-2.638l-.771-.583a1.555,1.555,0,0,0-2.316.531l-3.211,5.5A2.077,2.077,0,0,0,1295.959,1074.127Z" transform="translate(-1267.075 -1063.521)" fill="#0e2549"/>
      <path id="Path_275" data-name="Path 275" d="M1284.589,1251.92a1.543,1.543,0,0,1-1.255-.682,2.015,2.015,0,0,1,.24-2.583c.08-.074,8.2-7.706,8.294-17.784.058-6.01-2.743-11.8-8.325-17.208a157.557,157.557,0,0,1-22.014-27.62,2,2,0,0,1,.406-2.555,1.493,1.493,0,0,1,2.244.462c.091.149,9.266,15.107,21.454,26.916,6.355,6.157,9.537,12.911,9.459,20.074-.129,11.813-9.108,20.219-9.49,20.571A1.49,1.49,0,0,1,1284.589,1251.92Z" transform="translate(-1255.225 -1104.686)" fill="#0e2549"/>
      <ellipse id="Ellipse_17" data-name="Ellipse 17" cx="11.99" cy="13.654" rx="11.99" ry="13.654" transform="translate(14.877 143.951)" fill="#2e6b99"/>
      <ellipse id="Ellipse_18" data-name="Ellipse 18" cx="8.337" cy="9.493" rx="8.337" ry="9.493" transform="translate(18.531 148.41)" fill="#fff"/>
      <path id="Path_276" data-name="Path 276" d="M1288.684,1309.654c-4.712,0-8.545-4.365-8.545-9.731s3.833-9.731,8.545-9.731,8.546,4.365,8.546,9.731S1293.4,1309.654,1288.684,1309.654Zm0-18.986c-4.482,0-8.128,4.152-8.128,9.256s3.646,9.255,8.128,9.255,8.128-4.152,8.128-9.255S1293.166,1290.667,1288.684,1290.667Z" transform="translate(-1261.817 -1142.019)" fill="#0e2549"/>
    </g>
    <path id="Path_284" data-name="Path 284" d="M975.348,1242.922l-13.192-6.8,7.758-19.52,13.191,6.8Zm-12.639-7.036,12.431,6.406,7.414-18.654-12.431-6.406Z" transform="translate(0 -91.906)" fill="#0e2549"/>
    <path id="Path_285" data-name="Path 285" d="M976.931,1226.815a1.057,1.057,0,0,1-.483-.118,1.42,1.42,0,0,1-.585-1.769,1.122,1.122,0,0,1,1.554-.666,1.42,1.42,0,0,1,.585,1.769h0A1.178,1.178,0,0,1,976.931,1226.815Zm0-2.2a.677.677,0,0,0-.267.055.8.8,0,0,0-.423.451.967.967,0,0,0-.018.659.818.818,0,0,0,.4.481.722.722,0,0,0,1-.429h0a.914.914,0,0,0-.377-1.139A.674.674,0,0,0,976.933,1224.618Zm.879,1.314h0Z" transform="translate(-4.745 -94.535)" fill="#0e2549"/>
    <path id="Path_286" data-name="Path 286" d="M973.544,1235.336a1.047,1.047,0,0,1-.482-.119,1.418,1.418,0,0,1-.585-1.769,1.122,1.122,0,0,1,1.553-.667,1.419,1.419,0,0,1,.586,1.769h0A1.177,1.177,0,0,1,973.544,1235.336Zm0-2.2a.679.679,0,0,0-.268.056.8.8,0,0,0-.422.451.965.965,0,0,0-.019.658.824.824,0,0,0,.4.481.723.723,0,0,0,1-.43.915.915,0,0,0-.377-1.14A.685.685,0,0,0,973.547,1233.138Zm.879,1.315h0Z" transform="translate(-3.564 -97.507)" fill="#0e2549"/>
    <path id="Path_287" data-name="Path 287" d="M970.158,1243.856a1.05,1.05,0,0,1-.483-.119,1.273,1.273,0,0,1-.614-.746,1.5,1.5,0,0,1,.029-1.022,1.122,1.122,0,0,1,1.554-.666,1.419,1.419,0,0,1,.585,1.769A1.177,1.177,0,0,1,970.158,1243.856Zm0-2.2a.759.759,0,0,0-.69.506.967.967,0,0,0-.019.659.82.82,0,0,0,.4.481.665.665,0,0,0,.578.021.8.8,0,0,0,.422-.451.963.963,0,0,0,.019-.659.819.819,0,0,0-.4-.48A.672.672,0,0,0,970.16,1241.658Z" transform="translate(-2.382 -100.479)" fill="#0e2549"/>
    <path id="Path_288" data-name="Path 288" d="M984.84,1230.892a1.045,1.045,0,0,1-.482-.119,1.419,1.419,0,0,1-.585-1.769,1.242,1.242,0,0,1,.655-.7,1.037,1.037,0,0,1,.9.033,1.419,1.419,0,0,1,.585,1.769h0A1.177,1.177,0,0,1,984.84,1230.892Zm0-2.2a.661.661,0,0,0-.266.056.8.8,0,0,0-.423.451.961.961,0,0,0-.018.658.821.821,0,0,0,.4.481.724.724,0,0,0,1-.43h0a.965.965,0,0,0,.019-.658.824.824,0,0,0-.4-.481A.688.688,0,0,0,984.842,1228.693Zm.879,1.315h0Z" transform="translate(-7.504 -95.957)" fill="#0e2549"/>
    <path id="Path_289" data-name="Path 289" d="M981.454,1239.412a1.058,1.058,0,0,1-.483-.119,1.421,1.421,0,0,1-.585-1.769,1.122,1.122,0,0,1,1.554-.667,1.42,1.42,0,0,1,.585,1.769A1.178,1.178,0,0,1,981.454,1239.412Zm0-2.2a.678.678,0,0,0-.267.056.8.8,0,0,0-.422.451.967.967,0,0,0-.019.659.822.822,0,0,0,.4.48.667.667,0,0,0,.578.022.8.8,0,0,0,.422-.451h0a.914.914,0,0,0-.377-1.14A.674.674,0,0,0,981.456,1237.214Z" transform="translate(-6.322 -98.929)" fill="#0e2549"/>
    <path id="Path_290" data-name="Path 290" d="M978.068,1247.932a1.046,1.046,0,0,1-.482-.118,1.419,1.419,0,0,1-.586-1.769,1.122,1.122,0,0,1,1.554-.667,1.42,1.42,0,0,1,.585,1.769A1.177,1.177,0,0,1,978.068,1247.932Zm0-2.2a.758.758,0,0,0-.69.506.914.914,0,0,0,.378,1.14.668.668,0,0,0,.578.021.8.8,0,0,0,.422-.451.965.965,0,0,0,.019-.658.821.821,0,0,0-.4-.481A.678.678,0,0,0,978.071,1245.735Z" transform="translate(-5.141 -101.901)" fill="#0e2549"/>
    <path id="Path_291" data-name="Path 291" d="M1027.668,1103.72a2.664,2.664,0,0,0-3.025,2.413l-.876,5.663a2.968,2.968,0,0,0,2.119,3.445,2.322,2.322,0,0,0,.455.046,2.737,2.737,0,0,0,2.57-2.459l.876-5.663A2.967,2.967,0,0,0,1027.668,1103.72Zm-1.709,11.053a2.493,2.493,0,0,1-1.78-2.894l.4-2.6,4.321.867-.4,2.6A2.24,2.24,0,0,1,1025.96,1114.772Zm3.416-7.691-.4,2.6-4.321-.866.4-2.6a2.239,2.239,0,0,1,2.541-2.027A2.492,2.492,0,0,1,1029.376,1107.082Z" transform="translate(-21.477 -52.515)" fill="#0e2549"/>
    <path id="Path_292" data-name="Path 292" d="M1340.7,1222.659a4.239,4.239,0,0,0-1.237-2.764l-.956-.928a3.274,3.274,0,0,0-5.021.456l-6.242,8.34a4.46,4.46,0,0,0,.4,5.717l.956.928a3.3,3.3,0,0,0,2.307.967,3.392,3.392,0,0,0,2.714-1.424l6.242-8.34A4.406,4.406,0,0,0,1340.7,1222.659Zm-7.4,10.984a2.89,2.89,0,0,1-4.432.4l-.956-.928a3.938,3.938,0,0,1-.354-5.047l2.986-3.989,5.742,5.572Zm6.242-8.34-2.986,3.989-5.742-5.572,2.985-3.989a2.89,2.89,0,0,1,4.432-.4l.957.928a3.741,3.741,0,0,1,1.09,2.44A3.889,3.889,0,0,1,1339.547,1225.3Z" transform="translate(-127.049 -92.393)" fill="#0e2549"/>
    <path id="Path_293" data-name="Path 293" d="M1320.084,1187.248l-.665-6.334a2.986,2.986,0,0,0-3.2-2.862,3.213,3.213,0,0,0-2.513,3.639l.333,3.167h0l.333,3.167a3.382,3.382,0,0,0,1.079,2.182,2.645,2.645,0,0,0,1.772.7,2.579,2.579,0,0,0,.345-.023,2.794,2.794,0,0,0,1.916-1.23A3.579,3.579,0,0,0,1320.084,1187.248Zm-3.811-8.724a2.253,2.253,0,0,1,.293-.02,2.6,2.6,0,0,1,2.438,2.465l.308,2.931-4.88.665-.307-2.931A2.747,2.747,0,0,1,1316.273,1178.524Zm2.885,10.84a2.384,2.384,0,0,1-1.636,1.05,2.229,2.229,0,0,1-1.808-.582,2.887,2.887,0,0,1-.923-1.864l-.307-2.931,4.879-.665.308,2.932A3.059,3.059,0,0,1,1319.159,1189.364Z" transform="translate(-122.617 -78.451)" fill="#0e2549"/>
    <g id="Group_121" data-name="Group 121" transform="translate(1023.906 986.587)">
      <rect id="Rectangle_36" data-name="Rectangle 36" width="122.085" height="198.362" transform="translate(6.755 10.747)" fill="#1d2b4f"/>
      <rect id="Rectangle_37" data-name="Rectangle 37" width="97.958" height="171.987" transform="translate(18.295 24.14)" fill="#fff"/>
      <path id="Path_294" data-name="Path 294" d="M1183.131,1213.684h-98.376V1041.221h98.376Zm-97.958-.475h97.54V1041.7h-97.54Z" transform="translate(-1066.669 -1017.318)" fill="#0e2549"/>
      <path id="Path_295" data-name="Path 295" d="M1114.877,1094.961a.193.193,0,0,0-.294-.032l-4.608,4.326a8.03,8.03,0,0,0-6.535-3.585,8.12,8.12,0,0,0-6.836,4.04l-.591-.723a.191.191,0,0,0-.3-.012.262.262,0,0,0-.01.337l.658.8a10.453,10.453,0,0,0-1.3,5.089c0,5.256,3.755,9.533,8.372,9.533s8.372-4.277,8.372-9.533a10.392,10.392,0,0,0-1.584-5.57l4.62-4.338A.261.261,0,0,0,1114.877,1094.961Zm-11.437,1.185a7.632,7.632,0,0,1,6.213,3.411l-7.45,6.994-5.309-6.486A7.73,7.73,0,0,1,1103.441,1096.146Zm7.954,9.059c0,4.995-3.568,9.058-7.954,9.058s-7.955-4.063-7.955-9.058a9.953,9.953,0,0,1,1.173-4.73l5.507,6.728,7.74-7.266A9.878,9.878,0,0,1,1111.395,1105.2Z" transform="translate(-1070.267 -1036.033)" fill="#0e2549"/>
      <path id="Path_296" data-name="Path 296" d="M1113.068,1145.985a.192.192,0,0,0-.294-.032l-4.608,4.326a8.032,8.032,0,0,0-6.535-3.585,8.12,8.12,0,0,0-6.836,4.04l-.591-.722a.191.191,0,0,0-.295-.012.263.263,0,0,0-.01.337l.658.8a10.454,10.454,0,0,0-1.3,5.088c0,5.257,3.756,9.533,8.372,9.533s8.372-4.276,8.372-9.533a10.392,10.392,0,0,0-1.584-5.57l4.621-4.338A.261.261,0,0,0,1113.068,1145.985Zm-11.437,1.185a7.632,7.632,0,0,1,6.213,3.411l-7.45,6.994-5.309-6.486A7.732,7.732,0,0,1,1101.631,1147.17Zm7.954,9.058c0,4.995-3.568,9.058-7.954,9.058s-7.955-4.063-7.955-9.058a9.95,9.95,0,0,1,1.174-4.73l5.506,6.728,7.74-7.266A9.873,9.873,0,0,1,1109.585,1156.228Z" transform="translate(-1069.635 -1053.83)" fill="#0e2549"/>
      <path id="Path_297" data-name="Path 297" d="M1112.488,1197.01a.193.193,0,0,0-.294-.033l-4.608,4.326a8.029,8.029,0,0,0-6.535-3.584,8.12,8.12,0,0,0-6.836,4.039l-.591-.722a.191.191,0,0,0-.3-.012.261.261,0,0,0-.01.336l.658.8a10.46,10.46,0,0,0-1.3,5.089c0,5.257,3.755,9.534,8.372,9.534s8.372-4.277,8.372-9.534a10.392,10.392,0,0,0-1.584-5.57l4.62-4.338A.26.26,0,0,0,1112.488,1197.01Zm-11.437,1.184a7.632,7.632,0,0,1,6.213,3.412l-7.45,6.993-5.309-6.486A7.731,7.731,0,0,1,1101.051,1198.194Zm7.954,9.058c0,4.995-3.569,9.058-7.954,9.058s-7.955-4.063-7.955-9.058a9.953,9.953,0,0,1,1.174-4.73l5.507,6.728,7.739-7.266A9.879,9.879,0,0,1,1109,1207.252Z" transform="translate(-1069.433 -1071.628)" fill="#0e2549"/>
      <path id="Path_298" data-name="Path 298" d="M1192.034,1098.867h-59.422a.24.24,0,0,1,0-.476h59.422a.24.24,0,0,1,0,.476Z" transform="translate(-1083.289 -1037.259)" fill="#0e2549"/>
      <path id="Path_299" data-name="Path 299" d="M1175.553,1115.688h-43.711a.24.24,0,0,1,0-.476h43.711a.24.24,0,0,1,0,.476Z" transform="translate(-1083.021 -1043.127)" fill="#0e2549"/>
      <path id="Path_300" data-name="Path 300" d="M1190.756,1151.833h-60.069a.24.24,0,0,1,0-.475h60.069a.24.24,0,0,1,0,.475Z" transform="translate(-1082.618 -1055.734)" fill="#0e2549"/>
      <path id="Path_301" data-name="Path 301" d="M1158.622,1168.654h-28.7a.24.24,0,0,1,0-.476h28.7a.24.24,0,0,1,0,.476Z" transform="translate(-1082.349 -1061.601)" fill="#0e2549"/>
      <path id="Path_302" data-name="Path 302" d="M1190.766,1204.8h-61.789a.24.24,0,0,1,0-.475h61.789a.24.24,0,0,1,0,.475Z" transform="translate(-1082.021 -1074.209)" fill="#0e2549"/>
      <path id="Path_303" data-name="Path 303" d="M1176.689,1221.62h-48.482a.24.24,0,0,1,0-.476h48.482a.24.24,0,0,1,0,.476Z" transform="translate(-1081.753 -1080.076)" fill="#0e2549"/>
      <path id="Path_304" data-name="Path 304" d="M1157.027,1244.407h-57.9a.24.24,0,0,1,0-.475h57.9a.24.24,0,0,1,0,.475Z" transform="translate(-1071.611 -1088.025)" fill="#0e2549"/>
      <path id="Path_305" data-name="Path 305" d="M1156.253,1261.644h-57.9a.24.24,0,0,1,0-.476h57.9a.24.24,0,0,1,0,.476Z" transform="translate(-1071.341 -1094.037)" fill="#0e2549"/>
      <path id="Path_306" data-name="Path 306" d="M1101.157,1016.542c0,24.014-9.817,43.481-21.927,43.481s-21.927-19.467-21.927-43.481c0,0,8.074-3.091,10.644-4.427,3.005-1.564,11.656-7.177,11.656-7.177s8.455,5.657,11.277,7.177C1093.446,1013.5,1101.157,1016.542,1101.157,1016.542Z" transform="translate(-1057.094 -1004.662)" fill="#9adff7"/>
      <path id="Path_307" data-name="Path 307" d="M1079.118,1060.114c-5.935,0-11.506-4.566-15.686-12.855-4.159-8.247-6.45-19.209-6.45-30.864v-.171l.142-.055c.081-.031,8.094-3.1,10.624-4.418,2.963-1.542,11.553-7.112,11.639-7.168l.1-.068.1.07c.085.057,8.479,5.669,11.261,7.168,2.526,1.36,10.18,4.387,10.256,4.418l.14.055v.169c0,11.655-2.29,22.617-6.45,30.864C1090.623,1055.548,1085.053,1060.114,1079.118,1060.114Zm-21.718-43.549c.046,23.767,9.771,43.073,21.718,43.073s21.672-19.308,21.718-43.074c-1.06-.421-7.8-3.114-10.158-4.382-2.629-1.416-10.209-6.463-11.19-7.118-1,.645-8.766,5.661-11.567,7.119C1065.56,1013.412,1058.494,1016.145,1057.4,1016.565Z" transform="translate(-1056.982 -1004.515)" fill="#0e2549"/>
      <path id="Path_308" data-name="Path 308" d="M1099.3,1022.754c0,19.641-8.03,35.564-17.935,35.564s-17.935-15.922-17.935-35.564c0,0,7.159-2.628,9.424-3.811,2.316-1.21,8.9-5.76,8.9-5.76s6.512,4.767,8.835,6.033C1092.654,1020.342,1099.3,1022.754,1099.3,1022.754Z" transform="translate(-1059.233 -1007.539)" fill="#fff"/>
      <path id="Path_309" data-name="Path 309" d="M1081.257,1058.405c-4.868,0-9.436-3.742-12.863-10.536-3.405-6.752-5.281-15.725-5.281-25.266v-.173l.145-.053c.072-.026,7.174-2.637,9.4-3.8,2.279-1.19,8.809-5.7,8.875-5.747l.112-.078.109.081c.065.048,6.529,4.773,8.812,6.018,2.029,1.106,8.622,3.5,8.688,3.526l.145.053v.174c0,9.541-1.875,18.514-5.281,25.266C1090.693,1054.664,1086.125,1058.405,1081.257,1058.405Zm-17.725-35.628c.047,19.4,7.98,35.153,17.725,35.153s17.678-15.754,17.725-35.152c-1.009-.368-6.686-2.456-8.6-3.5-2.169-1.183-7.855-5.316-8.747-5.968-.879.6-6.672,4.581-8.806,5.7C1070.734,1020.105,1064.585,1022.388,1063.531,1022.777Z" transform="translate(-1059.121 -1007.388)" fill="#0e2549"/>
      <path id="Path_310" data-name="Path 310" d="M1096.385,1036h-8.027v-9.14h-7.246V1036h-8.027v8.251h8.027v9.14h7.246v-9.14h8.027Z" transform="translate(-1062.599 -1012.31)" fill="#122f53"/>
    </g>
    <path id="Path_313" data-name="Path 313" d="M1259.524,980.4a3.334,3.334,0,0,0-1.16-2.127,2.586,2.586,0,0,0-2.142-.563,2.835,2.835,0,0,0-1.868,1.322l-3.259,5.189a3.578,3.578,0,0,0,.667,4.566,2.615,2.615,0,0,0,1.661.608,2.569,2.569,0,0,0,.481-.046,2.832,2.832,0,0,0,1.868-1.321l3.259-5.189A3.607,3.607,0,0,0,1259.524,980.4Zm-4.092,7.353a2.273,2.273,0,0,1-3.427.649,3.058,3.058,0,0,1-.57-3.9l1.508-2.4,4,3.255Zm3.259-5.189-1.508,2.4-4-3.254,1.508-2.4a2.418,2.418,0,0,1,1.6-1.129,2.212,2.212,0,0,1,.412-.039,2.238,2.238,0,0,1,1.42.519,2.854,2.854,0,0,1,.992,1.818A3.088,3.088,0,0,1,1258.69,982.558Z" transform="translate(-140.319 -0.747)" fill="#0e2549"/>
    <g id="Group_123" data-name="Group 123" transform="translate(1097.294 1173.208)">
      <path id="Path_320" data-name="Path 320" d="M1172.463,1312.814h0a6.355,6.355,0,0,1-1.714-8.042l5.621-10.5a4.809,4.809,0,0,1,7.063-1.951h0a6.355,6.355,0,0,1,1.713,8.042l-5.62,10.5A4.809,4.809,0,0,1,1172.463,1312.814Z" transform="translate(-1169.792 -1291.228)" fill="#a1c5e2"/>
      <path id="Path_321" data-name="Path 321" d="M1185.837,1295.752a6.059,6.059,0,0,0-2.408-3.766,5,5,0,0,0-7.349,2.031l-5.621,10.5a6.773,6.773,0,0,0-.624,4.6,6.062,6.062,0,0,0,2.408,3.766,4.842,4.842,0,0,0,2.774.888,5.241,5.241,0,0,0,4.575-2.919l5.621-10.5A6.77,6.77,0,0,0,1185.837,1295.752Zm-6.6,14.858a4.605,4.605,0,0,1-6.776,1.872,5.583,5.583,0,0,1-2.219-3.472,6.242,6.242,0,0,1,.575-4.244l2.7-5.047,8.419,5.843Zm5.62-10.5-2.7,5.048-8.419-5.843,2.7-5.048a4.831,4.831,0,0,1,4.218-2.691,4.463,4.463,0,0,1,2.558.819,5.588,5.588,0,0,1,2.219,3.471A6.244,6.244,0,0,1,1184.855,1300.108Z" transform="translate(-1169.68 -1291.099)" fill="#0e2549"/>
      <path id="Path_322" data-name="Path 322" d="M1180.077,1314.123s-1.407,3.081-3.119,3.466-4.163.819-6.227-2.435.709-7.383.709-7.383l2.107-3.937,8.776,6.091Z" transform="translate(-1169.78 -1295.541)" fill="#0e2549"/>
    </g>
    <g id="Group_124" data-name="Group 124" transform="translate(1113.451 1138.682)">
      <path id="Path_323" data-name="Path 323" d="M1202.323,1251.64v-13.2h26.758v13.2c4.218.5,7.512,4.809,7.512,10.045V1295.2h-41.783v-33.514C1194.811,1256.449,1198.125,1252.087,1202.323,1251.64Z" transform="translate(-1194.602 -1238.205)" fill="#d2ebfc"/>
      <path id="Path_324" data-name="Path 324" d="M1194.81,1301.112h22.735l.254-20.69H1194.81Z" transform="translate(-1194.602 -1252.848)" fill="#fff"/>
      <path id="Path_325" data-name="Path 325" d="M1229.178,1251.3v-13.223H1202V1251.3c-4.228.568-7.512,5.03-7.512,10.258v33.752h42.2v-33.752C1236.691,1256.3,1233.474,1251.928,1229.178,1251.3Zm-9.3-12.747h2.262v12.721h-2.262Zm-2.512,0h2.094v12.721h-2.094Zm-2.745,0h2.327v12.721h-2.327Zm-2.97,0h2.553v12.721h-2.553Zm-3.063,0h2.646v12.721h-2.646Zm-3.2,0h2.785v12.721h-2.785Zm-2.96,0h2.543v12.721h-2.543Zm-7.513,27.336h22.568l-.248,20.214h-22.32Zm41.366,28.944h-41.366v-8.255h22.733l.26-21.166h-22.992v-3.856c0-5.06,3.213-9.366,7.316-9.806h21.267v-.476h-.937v-12.721h6.208v13.173l.187.023c4.176.5,7.326,4.716,7.326,9.808Z" transform="translate(-1194.49 -1238.078)" fill="#0e2549"/>
    </g>
    <g id="Group_125" data-name="Group 125" transform="translate(1112.869 1029.252)">
      <path id="Path_326" data-name="Path 326" d="M1235.5,1308.511l.008,4.98h6.059l.505-4.725Z" transform="translate(-1208.214 -1153.215)" fill="#fff"/>
      <path id="Path_327" data-name="Path 327" d="M1241.644,1313.6h-6.453l-.008-5.464,7.016.273Zm-6.036-.475h5.666l.455-4.259-6.128-.238Z" transform="translate(-1208.102 -1153.083)" fill="#0e2549"/>
      <path id="Path_328" data-name="Path 328" d="M1264.266,1219.866v9.715l-7.449-.518,1.077-8.8Z" transform="translate(-1215.648 -1122.295)" fill="#8daec4"/>
      <path id="Path_329" data-name="Path 329" d="M1230.153,1315.7s-8.757,3.165-9.059,5.773h15.7V1315.7Z" transform="translate(-1203.188 -1155.722)" fill="#9adff7"/>
      <path id="Path_330" data-name="Path 330" d="M1273.011,1308.62l.165,5.038h6.059l.287-5.147Z" transform="translate(-1221.297 -1153.215)" fill="#fff"/>
      <path id="Path_331" data-name="Path 331" d="M1279.316,1313.766h-6.457l-.181-5.51,6.952-.116Zm-6.054-.476h5.662l.26-4.667-6.072.1Z" transform="translate(-1221.181 -1153.086)" fill="#0e2549"/>
      <path id="Path_332" data-name="Path 332" d="M1267.9,1315.953s-8.757,3.165-9.059,5.773h15.7v-5.773Z" transform="translate(-1216.356 -1155.811)" fill="#9adff7"/>
      <path id="Path_333" data-name="Path 333" d="M1257.966,1323.182v1.5h16.684v-1.715Z" transform="translate(-1216.049 -1158.257)" fill="#0e2549"/>
      <path id="Path_334" data-name="Path 334" d="M1237.024,1322.827v1.6h-16.684v-1.715Z" transform="translate(-1202.925 -1158.168)" fill="#0e2549"/>
      <path id="Path_335" data-name="Path 335" d="M1270.117,1318.4a.187.187,0,0,1-.06-.01l-3.027-1.032a.245.245,0,0,1-.141-.3.207.207,0,0,1,.26-.16l3.027,1.032a.244.244,0,0,1,.141.3A.214.214,0,0,1,1270.117,1318.4Z" transform="translate(-1219.159 -1156.14)" fill="#0e2549"/>
      <path id="Path_336" data-name="Path 336" d="M1267.247,1121.231l-.376-.206c.03-.072,3.005-7.207,1.442-10.76a3.113,3.113,0,0,0-2.265-1.857h-6.27c-.036,0-4.764.346-4.828,3.573a39.255,39.255,0,0,0,.556,6.615l-.41.1a39.989,39.989,0,0,1-.564-6.722c.073-3.666,5.023-4.024,5.234-4.037h6.323l.02,0a3.525,3.525,0,0,1,2.578,2.116C1270.341,1113.813,1267.374,1120.93,1267.247,1121.231Z" transform="translate(-1214.85 -1083.252)" fill="#e2474b"/>
      <path id="Path_337" data-name="Path 337" d="M1267.793,1319.987a.2.2,0,0,1-.06-.01l-3.027-1.031a.245.245,0,0,1-.14-.3.207.207,0,0,1,.26-.16l3.027,1.031a.245.245,0,0,1,.141.3A.215.215,0,0,1,1267.793,1319.987Z" transform="translate(-1218.348 -1156.692)" fill="#0e2549"/>
      <path id="Path_338" data-name="Path 338" d="M1264.572,1321.571a.193.193,0,0,1-.06-.01l-3.027-1.031a.245.245,0,0,1-.14-.3.206.206,0,0,1,.26-.16l3.027,1.032a.244.244,0,0,1,.14.3A.214.214,0,0,1,1264.572,1321.571Z" transform="translate(-1217.224 -1157.245)" fill="#0e2549"/>
      <path id="Path_339" data-name="Path 339" d="M1233.029,1317.608a.187.187,0,0,1-.06-.01l-3.027-1.031a.246.246,0,0,1-.141-.3.207.207,0,0,1,.26-.159l3.027,1.031a.244.244,0,0,1,.141.3A.214.214,0,0,1,1233.029,1317.608Z" transform="translate(-1206.222 -1155.863)" fill="#0e2549"/>
      <path id="Path_340" data-name="Path 340" d="M1230.7,1319.192a.2.2,0,0,1-.06-.01l-3.027-1.031a.244.244,0,0,1-.14-.3.206.206,0,0,1,.26-.16l3.027,1.031a.245.245,0,0,1,.14.3A.214.214,0,0,1,1230.7,1319.192Z" transform="translate(-1205.411 -1156.415)" fill="#0e2549"/>
      <path id="Path_341" data-name="Path 341" d="M1227.484,1320.776a.193.193,0,0,1-.06-.01l-3.027-1.031a.244.244,0,0,1-.14-.3.206.206,0,0,1,.26-.159l3.027,1.031a.244.244,0,0,1,.14.3A.214.214,0,0,1,1227.484,1320.776Z" transform="translate(-1204.288 -1156.968)" fill="#0e2549"/>
      <path id="Path_342" data-name="Path 342" d="M1267.563,1174.92l-.242,25.912-.143,15.441-.436,46.665H1257.1l-4.314-47.6-.649-7.162-1.249,7.046-8.454,47.715h-9.283l3.825-47.715h0l1.764-22.021,1.028-12.814,13.027-2.562,5.043-.992Z" transform="translate(-1207.393 -1106.618)" fill="#0e2549"/>
      <path id="Path_343" data-name="Path 343" d="M1258.657,1100.568s.682,8.158.109,9.06-3.881,2.564-3.881,2.564l5.546,18.57,11.844-1.3.768-13.806s-5.406-5.016-5.733-6.045c-.45-1.426-.452-9.039-.452-9.039Z" transform="translate(-1214.974 -1080.684)" fill="#fff"/>
      <path id="Path_344" data-name="Path 344" d="M1260.148,1130.889l-5.661-18.954.175-.088c.906-.455,3.354-1.789,3.8-2.486.384-.6.113-5.779-.148-8.9a.232.232,0,0,1,.188-.259.217.217,0,0,1,.228.214c.115,1.377.66,8.294.07,9.222-.531.836-3.049,2.172-3.791,2.553l5.432,18.187,11.5-1.266.75-13.482c-.846-.787-5.391-5.051-5.713-6.071-.458-1.448-.465-8.807-.465-9.12a.211.211,0,1,1,.417,0c0,.076.006,7.589.44,8.959.225.71,3.513,3.942,5.668,5.941l.083.078-.786,14.131Z" transform="translate(-1214.836 -1080.556)" fill="#0e2549"/>
      <path id="Path_345" data-name="Path 345" d="M1204.871,1124.259c1.812,1.165,9,9.827,9,9.827l-5.162,2.807s-4.187-8.907-4.929-9.021c-1.392-.214-5.6-.07-6.962-1.106-2.056-1.568-3.119-3.565-2.874-4.188.132-.335,3.7,2.1,4.479,2.122C1200.637,1124.765,1203.58,1123.428,1204.871,1124.259Z" transform="translate(-1193.708 -1088.35)" fill="#fff"/>
      <path id="Path_346" data-name="Path 346" d="M1208.513,1137.079l-.095-.2c-1.98-4.213-4.311-8.695-4.784-8.9-.363-.054-.957-.085-1.644-.122-1.841-.1-4.362-.232-5.395-1.019-2.075-1.582-3.267-3.672-2.947-4.483a.261.261,0,0,1,.146-.152c.223-.091.627.109,2.116.953a11.186,11.186,0,0,0,2.412,1.18,13.4,13.4,0,0,0,2.852-.371c1.469-.3,2.856-.574,3.688-.039h0c1.818,1.169,8.759,9.516,9.054,9.87l.2.238Zm-14.5-14.4a6.974,6.974,0,0,0,2.818,3.76c.937.714,3.39.844,5.181.939.7.037,1.3.069,1.693.129.184.028.565.087,2.9,4.67.932,1.833,1.812,3.677,2.1,4.275l4.722-2.568c-1.168-1.4-7.16-8.518-8.758-9.546-.7-.451-2.017-.187-3.41.092a13.6,13.6,0,0,1-2.936.378,9.309,9.309,0,0,1-2.588-1.229A16.7,16.7,0,0,0,1194.01,1122.682Z" transform="translate(-1193.597 -1088.223)" fill="#0e2549"/>
      <path id="Path_347" data-name="Path 347" d="M1249.609,1116.021c-3.58,1.487-2.715,23.258-2.715,23.258-.585,2.56-1.961,16.267-1.961,16.267l25.091,5.695,2.958-17.108s1.852-28.8-7.978-30.49c-.944-.161-3.826,1.373-6.907,1.034-1.336-.147-2.017,1.669-2.682-1C1255.415,1113.679,1250.387,1115.7,1249.609,1116.021Z" transform="translate(-1211.503 -1085.24)" fill="#9adff7"/>
      <path id="Path_348" data-name="Path 348" d="M1269.757,1202.072l-.329,14.476-.2-.013-14.393-.934-.649-7.162-1.249,7.046h-13.912l1.764-22.021,5.166-10.582,8.889-4.795,4.481-2.416.563,1.424,9.485,24Z" transform="translate(-1209.442 -1106.88)" fill="#091a33"/>
      <path id="Path_349" data-name="Path 349" d="M1243.8,1142.394l-2.382-27.954c-1.641,0-8.654,5.025-8.654,5.025-.111-.259-5.985,11.956-7.6,16.5-.187.525-8.668-10.075-8.62-9.448,0,0-5.005,1.736-4.969,2.732s7.773,17.954,13.476,21.019c1.057.568,7.071-3.81,7.386-10.322l-.775,16.058-2.577,35.624,12.581.023,1.831-33.191Z" transform="translate(-1199.866 -1085.522)" fill="#a1c5e2"/>
      <path id="Path_350" data-name="Path 350" d="M1269.8,1112.818l-9.13,29.606c-.024,2.36-.483,11.838,0,21.865.654,13.618,2.308,28.25,2.308,27.436,0-.33,15.353.771,15.353.771l.738-27.948s5.817-4.582,5.817-17.559c0-14.539-.7-19.479-2.4-26.774C1282.249,1119.161,1273.146,1112.818,1269.8,1112.818Z" transform="translate(-1216.917 -1084.957)" fill="#a1c5e2"/>
      <path id="Path_351" data-name="Path 351" d="M1263.835,1076.327c-1.491-.037-5.112-.178-5.45,2.818a89.055,89.055,0,0,0-.332,10.244,1.806,1.806,0,0,0,1.437,1.825l9.062,1.324a1.673,1.673,0,0,0,1.809-1.414c.675-3.122,2.051-9.739,1.836-10.8C1271.462,1076.719,1266.2,1076.385,1263.835,1076.327Z" transform="translate(-1216.073 -1072.224)" fill="#0e2549"/>
      <path id="Path_352" data-name="Path 352" d="M1267.705,1095.761c.555-.508,1.009-2.77,1.359-5.374a.217.217,0,0,1,.113-.168,2.985,2.985,0,0,0,1.72-2.355c.1-1.126-.634-.994-1.235-.715-.108.05-.219-.052-.206-.187.311-3.158.47-5.942.47-5.942l-10.769-1.573s-.3,2.813-.547,5.979c-.012.142-.406,7.723-.224,8.441a2.127,2.127,0,0,0,.669,1.041s.619.744,4.532,1.316Z" transform="translate(-1216.179 -1073.317)" fill="#fff"/>
      <path id="Path_353" data-name="Path 353" d="M1263.477,1096.32l-.027,0c-3.7-.54-4.516-1.238-4.644-1.373a2.356,2.356,0,0,1-.731-1.155c-.2-.78.21-8.457.216-8.529.249-3.133.545-5.957.548-5.985l.025-.238,11.172,1.632-.012.223c0,.028-.159,2.767-.461,5.853.518-.223.908-.227,1.16-.011a1.134,1.134,0,0,1,.271,1.012,3.213,3.213,0,0,1-1.835,2.543c-.434,3.224-.9,5.027-1.433,5.513a.192.192,0,0,1-.294-.036.261.261,0,0,1,.032-.335c.247-.227.744-1.207,1.283-5.224a.449.449,0,0,1,.236-.35,2.764,2.764,0,0,0,1.6-2.161c.019-.207.016-.477-.107-.581s-.442-.075-.841.111a.32.32,0,0,1-.35-.052.447.447,0,0,1-.143-.382c.257-2.608.412-4.986.456-5.708l-10.364-1.514c-.076.744-.315,3.132-.522,5.733-.022.3-.4,7.7-.231,8.354a1.885,1.885,0,0,0,.6.921l.021.023s.7.7,4.407,1.244a.234.234,0,0,1,.181.266A.221.221,0,0,1,1263.477,1096.32Z" transform="translate(-1216.068 -1073.174)" fill="#0e2549"/>
      <path id="Path_354" data-name="Path 354" d="M1268.628,1091.506h-.028a.383.383,0,0,1-.32-.426l.017-.255a.367.367,0,0,1,.375-.364.383.383,0,0,1,.32.426l-.018.255A.37.37,0,0,1,1268.628,1091.506Z" transform="translate(-1219.646 -1077.157)" fill="#0e2549"/>
      <path id="Path_355" data-name="Path 355" d="M1261.362,1090.677a.287.287,0,0,1-.041,0,.388.388,0,0,1-.3-.44l.031-.3a.36.36,0,0,1,.386-.347.389.389,0,0,1,.3.44l-.031.3A.368.368,0,0,1,1261.362,1090.677Z" transform="translate(-1217.112 -1076.853)" fill="#0e2549"/>
      <path id="Path_356" data-name="Path 356" d="M1269.746,1088.711a.186.186,0,0,1-.1-.03,2.149,2.149,0,0,0-1.706-.222.206.206,0,0,1-.261-.157.246.246,0,0,1,.138-.3,2.492,2.492,0,0,1,2.032.261.256.256,0,0,1,.081.324A.205.205,0,0,1,1269.746,1088.711Z" transform="translate(-1219.433 -1076.264)" fill="#0e2549"/>
      <path id="Path_357" data-name="Path 357" d="M1262.824,1093.15a.187.187,0,0,1-.069-.014c-.157-.063-.94-.4-.966-.948-.019-.4.028-.5.608-1.714.125-.261.275-.575.457-.958a3.818,3.818,0,0,0,.268-1.253c0-.016-.039-.1-.2-.212a2.562,2.562,0,0,0-2.2-.229.2.2,0,0,1-.275-.124.251.251,0,0,1,.108-.313,2.935,2.935,0,0,1,2.587.262.789.789,0,0,1,.4.581,4.393,4.393,0,0,1-.306,1.488l-.007.017c-.184.387-.336.705-.462.968-.554,1.158-.57,1.2-.557,1.46.006.143.375.4.687.525a.248.248,0,0,1,.128.3A.213.213,0,0,1,1262.824,1093.15Z" transform="translate(-1216.908 -1076.018)" fill="#0e2549"/>
      <path id="Path_358" data-name="Path 358" d="M1277.01,1191.32a.192.192,0,0,1-.126-.048l-6.927-5.992a.26.26,0,0,1-.04-.333.192.192,0,0,1,.292-.046l6.926,5.991a.26.26,0,0,1,.04.333A.2.2,0,0,1,1277.01,1191.32Z" transform="translate(-1220.203 -1110.083)" fill="#0e2549"/>
      <path id="Path_359" data-name="Path 359" d="M1243.279,1190.059a.208.208,0,0,1-.187-.13.254.254,0,0,1,.092-.32l7.452-4.308a.2.2,0,0,1,.281.1.255.255,0,0,1-.092.32l-7.452,4.307A.185.185,0,0,1,1243.279,1190.059Z" transform="translate(-1210.853 -1110.23)" fill="#0e2549"/>
      <path id="Path_360" data-name="Path 360" d="M1255.032,1113.166l-5,6.3,4.056,1.856-2.332,6.969,5.361,12.822c.02.047.083.027.078-.025Z" transform="translate(-1213.28 -1085.078)" fill="#fff"/>
      <path id="Path_361" data-name="Path 361" d="M1256.96,1141.072a.25.25,0,0,1-.226-.162l-5.4-12.914,2.291-6.846-4.144-1.9,5.527-6.952,2.2,28.46a.285.285,0,0,1-.183.3A.21.21,0,0,1,1256.96,1141.072Zm-.167-.27v0Zm-5.005-12.826,4.924,11.774-2.036-26.321-4.482,5.639,3.969,1.816Z" transform="translate(-1213.089 -1084.776)" fill="#0e2549"/>
      <path id="Path_362" data-name="Path 362" d="M1270.1,1112.818l4.836,8.35-5.456.54,1.226,7.392-9.259,11.746c-.061.078-.173,0-.139-.1Z" transform="translate(-1217.213 -1084.957)" fill="#fff"/>
      <path id="Path_363" data-name="Path 363" d="M1261.275,1140.833a.272.272,0,0,1-.154-.05.353.353,0,0,1-.12-.4l8.931-28.373,5.26,9.08-5.575.552,1.2,7.25-9.327,11.833A.275.275,0,0,1,1261.275,1140.833Zm.119-.292v0Zm8.65-27.478-8.436,26.8,8.761-11.116-1.249-7.534,5.337-.529Z" transform="translate(-1217.101 -1084.673)" fill="#0e2549"/>
      <path id="Path_364" data-name="Path 364" d="M1277.636,1207.682h-.01l-14.857-.778-.052-.134c-1.3-3.33-2.428-30.483-2.475-31.637l.3-19.226a.211.211,0,1,1,.417.009l-.3,19.21c.011.263,1.142,27.5,2.392,31.317l14.594.765a.227.227,0,0,1,.2.248A.223.223,0,0,1,1277.636,1207.682Z" transform="translate(-1216.843 -1099.904)" fill="#0e2549"/>
      <path id="Path_365" data-name="Path 365" d="M1263.2,1173.288a.62.62,0,1,0,.614-.7A.661.661,0,0,0,1263.2,1173.288Z" transform="translate(-1217.875 -1105.805)" fill="#fff"/>
      <path id="Path_366" data-name="Path 366" d="M1263.7,1174.1a.945.945,0,1,1,.824-.937A.886.886,0,0,1,1263.7,1174.1Zm0-1.4a.466.466,0,1,0,.406.462A.437.437,0,0,0,1263.7,1172.7Z" transform="translate(-1217.763 -1105.677)" fill="#0e2549"/>
      <path id="Path_367" data-name="Path 367" d="M1250.373,1202.386h-12.26l.017-.255,3.763-57.321a.222.222,0,0,1,.224-.219.231.231,0,0,1,.193.255l-3.746,57.065h11.81a.24.24,0,0,1,0,.475Z" transform="translate(-1209.124 -1096.039)" fill="#0e2549"/>
      <path id="Path_368" data-name="Path 368" d="M1274.07,1113.542l-2.908-2.581-6.014,2.784,1.929,2.62Z" transform="translate(-1218.554 -1084.309)" fill="#9adff7"/>
      <path id="Path_369" data-name="Path 369" d="M1266.825,1116.5l-2.206-3,6.391-2.958,3.3,2.932Zm-1.517-2.8,1.652,2.244,6.5-2.623-2.512-2.23Z" transform="translate(-1218.37 -1084.163)" fill="#0e2549"/>
      <path id="Path_370" data-name="Path 370" d="M1254.948,1114.066l2.028-2.448,4.614,2.356-1.739,2.416Z" transform="translate(-1214.997 -1084.538)" fill="#9adff7"/>
      <path id="Path_371" data-name="Path 371" d="M1259.721,1116.524,1254.4,1114l2.338-2.821,5,2.553Zm-4.606-2.7,4.48,2.124,1.468-2.039-4.229-2.159Z" transform="translate(-1214.804 -1084.384)" fill="#0e2549"/>
      <path id="Path_372" data-name="Path 372" d="M1265.3,1117.857l-1.928-2.62-1.917,2.62.838,1.125-2.242,13.972.823,8.638,3.108-9.873-.08-12.523Z" transform="translate(-1216.776 -1085.8)" fill="#0e2549"/>
      <rect id="Rectangle_38" data-name="Rectangle 38" width="10.542" height="3.409" transform="translate(24.945 153.463)" fill="#0e2549"/>
      <rect id="Rectangle_39" data-name="Rectangle 39" width="10.542" height="3.409" transform="translate(49.445 152.912)" fill="#0e2549"/>
      <path id="Path_373" data-name="Path 373" d="M1247.9,1286.665a.185.185,0,0,1-.042,0,.239.239,0,0,1-.163-.28l4.687-26.454c-.992.267-3.757.927-4.674.257a.8.8,0,0,1-.33-.535.784.784,0,0,1,.129-.563c.514-.777,2.549-1.181,3.545-1.335-.865-.761-1.247-1.31-1.134-1.631s.51-.256.641-.237a4.773,4.773,0,0,1,2.321,1.194l1.147-6.431a.211.211,0,0,1,.246-.185.238.238,0,0,1,.163.281l-1.292,7.247-.274-.3a4.709,4.709,0,0,0-2.367-1.337c-.068-.01-.121-.009-.156-.014a7.166,7.166,0,0,0,1.371,1.382l.447.365-.548.065c-.9.1-3.32.529-3.776,1.22a.26.26,0,0,0-.052.193.321.321,0,0,0,.145.22c.768.562,3.628-.1,4.666-.408l.322-.094-4.818,27.193A.217.217,0,0,1,1247.9,1286.665Z" transform="translate(-1212.353 -1132.965)" fill="#a1c5e2"/>
      <path id="Path_374" data-name="Path 374" d="M1282.263,1285.125h0a.225.225,0,0,1-.208-.239l.111-26.987c-.928.48-3.529,1.736-4.542,1.28a.754.754,0,0,1-.414-.453.8.8,0,0,1,.031-.581c.373-.875,2.3-1.719,3.251-2.09-.978-.557-1.445-1.011-1.39-1.351s.456-.364.588-.373a4.527,4.527,0,0,1,2.48.661l.034-6.563a.211.211,0,1,1,.418,0l-.038,7.4-.319-.232a4.448,4.448,0,0,0-2.549-.791,1.116,1.116,0,0,0-.154.021,6.6,6.6,0,0,0,1.578,1.054l.5.26-.526.183c-.861.3-3.167,1.25-3.5,2.028a.267.267,0,0,0-.018.2.3.3,0,0,0,.179.184c.85.382,3.542-.9,4.509-1.427l.3-.163-.115,27.741A.224.224,0,0,1,1282.263,1285.125Z" transform="translate(-1222.747 -1132.176)" fill="#a1c5e2"/>
      <path id="Path_375" data-name="Path 375" d="M1268.265,1078.64s-10.828.962-14.369-2.267c-2.021-1.843.484-6.063,2.339-6.329,1.395-.2,2.853,2.187,4.32,2.381,1.129.149,3.783.766,5.239,1.1C1268.746,1074.206,1269.793,1077.134,1268.265,1078.64Z" transform="translate(-1214.369 -1070.033)" fill="#0e2549"/>
      <path id="Path_376" data-name="Path 376" d="M1281.693,1183.668l-13.037,6.573,4.442,10.336,12.821-6.618Z" transform="translate(-1219.778 -1109.669)" fill="#fff"/>
      <path id="Path_377" data-name="Path 377" d="M1272.847,1200.722l-4.626-10.766,13.422-6.768,4.4,10.72Zm-4.06-10.531,4.257,9.907,12.444-6.424-4.049-9.862Z" transform="translate(-1219.626 -1109.502)" fill="#0e2549"/>
      <path id="Path_378" data-name="Path 378" d="M1283.209,1177.673a27.047,27.047,0,0,1-2.964,8.688,37.9,37.9,0,0,0-2.65,5.088c-.122.514,2.145-.747,2.25-.778l.139.968s.449.495.847.3c.341-.165.51-.777.838-.869a3.976,3.976,0,0,0,.878.046c.278-.079.491-.717.693-.911.149-.143.686.107.926-.072.384-.286.237-.9.505-1.107s.639.218,1.068-.152-1.332-3.206-1.3-3.851c.117-2.26,8.145-14.859,4.17-23.516C1286.827,1157.628,1284.052,1169.339,1283.209,1177.673Z" transform="translate(-1222.894 -1101.673)" fill="#fff"/>
      <path id="Path_379" data-name="Path 379" d="M1280.525,1192.1a1.268,1.268,0,0,1-.8-.413l-.05-.055-.107-.744h0c-1.634.836-2.013.895-2.2.71a.35.35,0,0,1-.083-.337,38.079,38.079,0,0,1,2.68-5.163,26.743,26.743,0,0,0,2.928-8.578l.208.026-.208-.026c.682-6.739,2.746-16.715,4.7-17.127.417-.089.787.207,1.1.879,3.029,6.6-.831,15.519-2.9,20.312a16.189,16.189,0,0,0-1.242,3.328,7.216,7.216,0,0,0,.606,1.55c.633,1.372.973,2.164.61,2.477a.885.885,0,0,1-.843.169c-.1-.02-.2-.04-.232-.01a.666.666,0,0,0-.112.324,1.211,1.211,0,0,1-.4.786.909.909,0,0,1-.669.083,1.182,1.182,0,0,0-.248-.015,2.028,2.028,0,0,0-.19.3c-.152.27-.325.575-.576.646a2.5,2.5,0,0,1-.817-.025l-.085-.011a1.052,1.052,0,0,0-.29.334,1.415,1.415,0,0,1-.493.514A.63.63,0,0,1,1280.525,1192.1Zm-.459-.708c.107.1.369.306.572.207a1.106,1.106,0,0,0,.326-.368,1.112,1.112,0,0,1,.544-.514.5.5,0,0,1,.21.009,2.8,2.8,0,0,0,.668.036c.09-.025.237-.286.325-.442a1.861,1.861,0,0,1,.285-.42c.138-.132.338-.107.55-.081a.784.784,0,0,0,.395-.007.768.768,0,0,0,.219-.5.967.967,0,0,1,.283-.609.607.607,0,0,1,.542-.066.53.53,0,0,0,.5-.066,7.39,7.39,0,0,0-.71-1.892,5.431,5.431,0,0,1-.654-1.8,15.331,15.331,0,0,1,1.284-3.509c2.041-4.718,5.839-13.5,2.91-19.882-.214-.466-.431-.677-.65-.632-.677.143-1.6,2.3-2.474,5.777a81.418,81.418,0,0,0-1.885,10.936,27.427,27.427,0,0,1-3,8.8,44.621,44.621,0,0,0-2.557,4.817,10,10,0,0,0,1.649-.735,2.21,2.21,0,0,1,.286-.138l.22-.063Z" transform="translate(-1222.783 -1101.545)" fill="#0e2549"/>
      <path id="Path_380" data-name="Path 380" d="M1286.3,1175.565s6.1-4.5,7.125-14.117-2.652-25.7-2.652-25.7l-7.372,8.265s1.669,13.049,1.112,16.034-4.515,15.516-4.515,15.516Z" transform="translate(-1223.734 -1092.955)" fill="#a1c5e2"/>
      <path id="Path_381" data-name="Path 381" d="M1286.153,1179.253h-6.573l.07-.3a71.161,71.161,0,0,1,2.323-7.59,34.051,34.051,0,0,0,2.285-8.934,45.464,45.464,0,0,0-2.058-16.46.249.249,0,0,1,.114-.31.2.2,0,0,1,.272.129,46.061,46.061,0,0,1,2.088,16.675,34.991,34.991,0,0,1-2.313,9.075,72.6,72.6,0,0,0-2.238,7.237h6.029a.24.24,0,0,1,0,.476Z" transform="translate(-1223.588 -1096.406)" fill="#0e2549"/>
      <path id="Path_382" data-name="Path 382" d="M1271.771,1145.428v4.761l6.43.014v-4.776Z" transform="translate(-1220.864 -1096.331)" fill="#fff"/>
      <path id="Path_383" data-name="Path 383" d="M1278.3,1150.315l-6.847-.016v-5.236h6.847Zm-6.429-.49,6.012.014v-4.3h-6.012Z" transform="translate(-1220.753 -1096.204)" fill="#0e2549"/>
      <path id="Path_384" data-name="Path 384" d="M1277.4,1144.807h-2.626a1.094,1.094,0,0,1,1.017-1.158h.592a1.094,1.094,0,0,1,1.017,1.158Z" transform="translate(-1221.913 -1095.71)" fill="#fff"/>
      <path id="Path_385" data-name="Path 385" d="M1277.5,1144.918h-3.044v-.238a1.321,1.321,0,0,1,1.226-1.4h.592a1.321,1.321,0,0,1,1.226,1.4Zm-2.6-.475h2.155a.836.836,0,0,0-.781-.683h-.592A.836.836,0,0,0,1274.9,1144.443Z" transform="translate(-1221.801 -1095.583)" fill="#0e2549"/>
      <path id="Path_386" data-name="Path 386" d="M1277.659,1147.811h-4.038a.24.24,0,0,1,0-.476h4.038a.24.24,0,0,1,0,.476Z" transform="translate(-1221.437 -1096.996)" fill="#0e2549"/>
      <path id="Path_387" data-name="Path 387" d="M1277.251,1149.758h-2.7a.24.24,0,0,1,0-.475h2.7a.24.24,0,0,1,0,.475Z" transform="translate(-1221.76 -1097.676)" fill="#0e2549"/>
      <path id="Path_388" data-name="Path 388" d="M1274.483,1129.943a1.547,1.547,0,1,1-1.534-1.747A1.651,1.651,0,0,1,1274.483,1129.943Z" transform="translate(-1220.74 -1090.32)" fill="#ebf4fe"/>
      <path id="Path_389" data-name="Path 389" d="M1272.837,1131.8a2,2,0,1,1,1.743-1.985A1.878,1.878,0,0,1,1272.837,1131.8Zm0-3.494a1.522,1.522,0,1,0,1.325,1.51A1.428,1.428,0,0,0,1272.837,1128.306Z" transform="translate(-1220.628 -1090.193)" fill="#ed1b24"/>
      <path id="Path_390" data-name="Path 390" d="M1254.879,1135.407l-.4-.124c.221-.929.143-7.775-1.487-10.069a1.405,1.405,0,0,0-1.239-.724,1.443,1.443,0,0,0-1.07.629c-1.652,2.125-1.284,8.663-1.28,8.729l-.417.032c-.016-.277-.384-6.8,1.383-9.076a1.848,1.848,0,0,1,1.36-.789,1.8,1.8,0,0,1,1.587.9C1255.058,1127.37,1255.116,1134.41,1254.879,1135.407Z" transform="translate(-1212.901 -1088.861)" fill="#ed1b24"/>
      <path id="Path_391" data-name="Path 391" d="M1257.387,1141.843a.538.538,0,1,1,.469-.533A.5.5,0,0,1,1257.387,1141.843Zm0-.591a.058.058,0,1,0,.051.058A.054.054,0,0,0,1257.387,1141.251Z" transform="translate(-1215.684 -1094.708)" fill="#e2474b"/>
      <path id="Path_392" data-name="Path 392" d="M1249.014,1139.746a.538.538,0,1,1,.469-.533A.5.5,0,0,1,1249.014,1139.746Zm0-.591a.058.058,0,1,0,.051.058A.055.055,0,0,0,1249.014,1139.154Z" transform="translate(-1212.764 -1093.977)" fill="#e2474b"/>
      <path id="Path_393" data-name="Path 393" d="M1253.329,1118.839l-.4-.147a30.49,30.49,0,0,0,1.044-6.6c.028-1.4.722-3.2,3.871-3.811l.07.469c-2.3.444-3.488,1.572-3.524,3.353A31.08,31.08,0,0,1,1253.329,1118.839Z" transform="translate(-1214.293 -1083.374)" fill="#ed1b24"/>
      <path id="Path_394" data-name="Path 394" d="M1273.859,1121.557l-.376-.206c.04-.095,3.963-9.521.4-12.082l.223-.4C1277.981,1111.653,1274.029,1121.154,1273.859,1121.557Z" transform="translate(-1221.461 -1083.579)" fill="#ed1b24"/>
      <path id="Path_395" data-name="Path 395" d="M1257.908,1093.144s-1.1,5.183.2,6.52,6.84,2.069,7.834,1.565,2.747-6.36,2.747-6.36a11.992,11.992,0,0,1-3.436.942c-1.225-.009-4.265.041-5.649-.935A8.154,8.154,0,0,1,1257.908,1093.144Z" transform="translate(-1215.878 -1078.094)" fill="#0e2549"/>
      <path id="Path_396" data-name="Path 396" d="M1264.366,1097.935a1.785,1.785,0,0,1-1.737,1.338c-1.365-.279-1.476-1.939-1.164-1.783a2.716,2.716,0,0,0,1.352.748C1263.705,1098.388,1264.318,1097.682,1264.366,1097.935Z" transform="translate(-1217.219 -1079.606)" fill="#fff"/>
    </g>
  </g>
</svg>
