<svg xmlns="http://www.w3.org/2000/svg" width="44" height="44" viewBox="0 0 44 44">
  <g id="Group_677" data-name="Group 677" transform="translate(-1532 -920)">
    <g id="Group_672" data-name="Group 672" transform="translate(0 442)">
      <path id="Path_2889" data-name="Path 2889" d="M22,0A22,22,0,1,1,0,22,22,22,0,0,1,22,0Z" transform="translate(1532 478)" fill="rgba(14,99,244,0.32)"/>
      <path id="Path_2890" data-name="Path 2890" d="M19.606,0A19.606,19.606,0,1,1,0,19.606,19.606,19.606,0,0,1,19.606,0Z" transform="translate(1534.394 480.394)" fill="#0e63f4"/>
    </g>
    <g id="privacy-settings" transform="translate(1543.062 931.123)">
      <path id="settings" d="M18.867,7.813l-1.564-.2a7.86,7.86,0,0,0-.473-1.143L17.8,5.228a1.236,1.236,0,0,0-.1-1.646l-1.31-1.31a1.24,1.24,0,0,0-1.651-.106l-1.242.966a7.832,7.832,0,0,0-1.144-.473l-.2-1.561A1.246,1.246,0,0,0,10.913,0H9.05A1.246,1.246,0,0,0,7.814,1.1l-.2,1.564a7.742,7.742,0,0,0-1.144.473L5.229,2.167a1.237,1.237,0,0,0-1.646.1L2.272,3.577a1.24,1.24,0,0,0-.106,1.652l.966,1.243a7.768,7.768,0,0,0-.473,1.143l-1.561.2A1.246,1.246,0,0,0,0,9.049v1.863a1.246,1.246,0,0,0,1.1,1.236l1.564.2a7.86,7.86,0,0,0,.473,1.143l-.966,1.243a1.236,1.236,0,0,0,.1,1.646l1.31,1.31a1.241,1.241,0,0,0,1.651.1l1.243-.966a7.68,7.68,0,0,0,1.143.473l.2,1.56a1.246,1.246,0,0,0,1.236,1.1h1.863a1.246,1.246,0,0,0,1.236-1.1l.2-1.564a7.861,7.861,0,0,0,1.143-.473l1.244.966a1.236,1.236,0,0,0,1.646-.1l1.31-1.31a1.239,1.239,0,0,0,.106-1.651L16.83,13.49a7.679,7.679,0,0,0,.473-1.143l1.56-.2a1.246,1.246,0,0,0,1.1-1.236V9.049a1.244,1.244,0,0,0-1.095-1.236ZM9.981,14.14A4.159,4.159,0,1,1,14.14,9.981,4.164,4.164,0,0,1,9.981,14.14Z" transform="translate(0.938 0.877)" fill="#fff"/>
    </g>
  </g>
</svg>
